<svg width="214" height="64" viewBox="0 0 214 64" fill="none" xmlns="http://www.w3.org/2000/svg">
<rect width="214" height="64" rx="9" fill="white"/>
<path d="M81.832 29.444C81.832 30.476 81.58 31.388 81.076 32.18C80.596 32.948 79.948 33.536 79.132 33.944C78.34 34.352 77.5 34.556 76.612 34.556C75.676 34.556 74.788 34.316 73.948 33.836L74.02 33.512L74.632 33.548L75.244 33.512C76.18 33.368 76.912 32.948 77.44 32.252C77.968 31.532 78.232 30.584 78.232 29.408C78.232 28.088 77.932 26.984 77.332 26.096C76.756 25.184 75.952 24.728 74.92 24.728C74.368 24.728 73.96 24.884 73.696 25.196C73.456 25.508 73.336 25.856 73.336 26.24V36.284C73.336 37.244 73.408 38 73.552 38.552C73.72 39.104 74.008 39.656 74.416 40.208L74.704 40.64L74.416 41H68.152L67.9 40.352C68.524 40.184 68.956 40.028 69.196 39.884C69.46 39.74 69.64 39.536 69.736 39.272C69.832 39.008 69.88 38.588 69.88 38.012V28.436C69.88 27.596 69.808 26.96 69.664 26.528C69.544 26.072 69.244 25.7 68.764 25.412L68.332 25.16L68.476 24.692C69.172 24.476 70.072 24.284 71.176 24.116C72.304 23.948 73.372 23.864 74.38 23.864C76.828 23.864 78.676 24.38 79.924 25.412C81.196 26.42 81.832 27.764 81.832 29.444ZM87.1555 33.044C86.6515 33.332 86.0515 33.476 85.3555 33.476C84.8515 33.476 84.4555 33.332 84.1675 33.044C83.8795 32.732 83.7355 32.3 83.7355 31.748C83.7355 30.932 84.1315 30.284 84.9235 29.804C85.7395 29.3 86.7955 29.048 88.0915 29.048C89.6275 29.048 90.8275 29.384 91.6915 30.056C92.5795 30.728 93.0235 31.64 93.0235 32.792V39.02C93.0235 39.692 93.2635 40.028 93.7435 40.028C94.1995 40.028 94.6435 39.848 95.0755 39.488L95.3635 39.848C94.4755 40.832 93.4195 41.324 92.1955 41.324C91.4755 41.324 90.9235 41.144 90.5395 40.784C90.1795 40.424 89.9635 39.86 89.8915 39.092H89.7475C89.3635 39.788 88.8475 40.34 88.1995 40.748C87.5755 41.132 86.8555 41.324 86.0395 41.324C85.1275 41.324 84.3955 41.048 83.8435 40.496C83.2915 39.92 83.0155 39.176 83.0155 38.264C83.0155 37.232 83.5075 36.416 84.4915 35.816C85.4755 35.216 86.8075 34.916 88.4875 34.916C88.7995 34.916 89.2435 34.94 89.8195 34.988V33.188C89.8195 32.012 89.6755 31.172 89.3875 30.668C89.0995 30.14 88.6315 29.876 87.9835 29.876C87.5275 29.876 87.1675 30.02 86.9035 30.308C86.6395 30.596 86.5075 30.968 86.5075 31.424C86.5075 32.144 86.7235 32.684 87.1555 33.044ZM87.6955 39.524C89.1115 39.524 89.8195 38.24 89.8195 35.672C88.6195 35.672 87.7195 35.876 87.1195 36.284C86.5195 36.668 86.2195 37.22 86.2195 37.94C86.2195 38.42 86.3515 38.804 86.6155 39.092C86.8795 39.38 87.2395 39.524 87.6955 39.524ZM104.012 29.048C104.78 29.048 105.404 29.276 105.884 29.732C106.364 30.164 106.604 30.728 106.604 31.424C106.604 32.072 106.412 32.6 106.028 33.008C105.644 33.392 105.14 33.584 104.516 33.584C104.036 33.584 103.592 33.488 103.184 33.296C103.616 32.936 103.832 32.396 103.832 31.676C103.832 31.34 103.76 31.076 103.616 30.884C103.472 30.692 103.28 30.596 103.04 30.596C102.464 30.596 101.984 31.184 101.6 32.36C101.216 33.512 101.024 34.952 101.024 36.68C101.024 37.568 101.072 38.276 101.168 38.804C101.288 39.332 101.48 39.824 101.744 40.28L102.032 40.64L101.744 41H96.5239L96.3079 40.388L96.8119 40.28C97.1959 40.184 97.4479 40.04 97.5679 39.848C97.6879 39.632 97.7479 39.224 97.7479 38.624V31.604C97.7479 31.148 97.5919 30.92 97.2799 30.92H96.1639L96.0199 30.524C96.4759 30.116 97.0399 29.78 97.7119 29.516C98.4079 29.252 99.0919 29.12 99.7639 29.12C100.076 29.12 100.328 29.192 100.52 29.336C100.712 29.48 100.808 29.672 100.808 29.912V32.54H100.916C101.42 30.212 102.452 29.048 104.012 29.048ZM118.21 32.216C118.21 33.008 117.97 33.632 117.49 34.088C117.01 34.544 116.422 34.772 115.726 34.772C115.174 34.772 114.67 34.628 114.214 34.34C114.742 33.86 115.006 33.188 115.006 32.324C115.006 31.628 114.862 31.064 114.574 30.632C114.286 30.176 113.866 29.948 113.314 29.948C112.69 29.948 112.174 30.44 111.766 31.424C111.382 32.384 111.19 33.644 111.19 35.204C111.19 36.692 111.466 37.892 112.018 38.804C112.594 39.692 113.398 40.136 114.43 40.136C115.15 40.136 115.762 40.004 116.266 39.74C116.794 39.476 117.286 39.092 117.742 38.588L118.174 38.876C117.67 39.596 117.01 40.184 116.194 40.64C115.378 41.096 114.43 41.324 113.35 41.324C111.67 41.324 110.29 40.76 109.21 39.632C108.13 38.504 107.59 37.052 107.59 35.276C107.59 33.38 108.154 31.868 109.282 30.74C110.41 29.612 111.91 29.048 113.782 29.048C115.102 29.048 116.17 29.348 116.986 29.948C117.802 30.524 118.21 31.28 118.21 32.216ZM131.959 38.948C131.959 39.668 132.187 40.028 132.643 40.028C133.099 40.028 133.543 39.848 133.975 39.488L134.263 39.848C133.375 40.832 132.331 41.324 131.131 41.324C130.267 41.324 129.643 41.108 129.259 40.676C128.899 40.22 128.719 39.488 128.719 38.48V32.972C128.719 31.58 128.275 30.884 127.387 30.884C126.523 30.884 125.827 31.472 125.299 32.648C124.771 33.824 124.507 35.36 124.507 37.256C124.507 38 124.555 38.6 124.651 39.056C124.771 39.488 124.963 39.896 125.227 40.28L125.515 40.64L125.227 41H120.007L119.791 40.388L120.295 40.28C120.679 40.184 120.931 40.04 121.051 39.848C121.171 39.632 121.231 39.224 121.231 38.624V25.772C121.231 25.58 121.183 25.424 121.087 25.304C121.015 25.184 120.907 25.124 120.763 25.124H119.647L119.503 24.764C119.959 24.332 120.547 23.996 121.267 23.756C122.011 23.492 122.743 23.36 123.463 23.36C123.775 23.36 124.027 23.432 124.219 23.576C124.411 23.696 124.507 23.876 124.507 24.116V33.008C124.843 31.88 125.431 30.944 126.271 30.2C127.135 29.432 128.047 29.048 129.007 29.048C130.039 29.048 130.783 29.384 131.239 30.056C131.719 30.728 131.959 31.796 131.959 33.26V38.948ZM139.864 38.948C139.864 39.668 140.092 40.028 140.548 40.028C141.004 40.028 141.448 39.848 141.88 39.488L142.168 39.848C141.28 40.832 140.236 41.324 139.036 41.324C138.172 41.324 137.548 41.108 137.164 40.676C136.78 40.22 136.588 39.488 136.588 38.48V31.352C136.588 31.016 136.432 30.848 136.12 30.848H135.004L134.896 30.452C135.376 30.044 135.976 29.708 136.696 29.444C137.416 29.18 138.136 29.048 138.856 29.048C139.144 29.048 139.384 29.12 139.576 29.264C139.768 29.408 139.864 29.6 139.864 29.84V38.948ZM136.228 25.592C136.228 25.16 136.468 24.68 136.948 24.152C137.428 23.624 137.872 23.36 138.28 23.36C138.712 23.36 139.168 23.624 139.648 24.152C140.152 24.68 140.404 25.16 140.404 25.592C140.404 26.048 140.152 26.54 139.648 27.068C139.168 27.572 138.712 27.824 138.28 27.824C137.872 27.824 137.428 27.572 136.948 27.068C136.468 26.54 136.228 26.048 136.228 25.592Z" fill="#533759"/>
</svg>
