<svg width="214" height="64" viewBox="0 0 214 64" fill="none" xmlns="http://www.w3.org/2000/svg">
<rect width="214" height="64" rx="9" fill="#533759"/>
<path d="M27.634 36.66C27.8073 37.1453 27.998 37.5353 28.206 37.83C28.414 38.1073 28.7347 38.4107 29.168 38.74L28.934 39H24.228L24.072 38.532L24.462 38.428C24.722 38.3413 24.904 38.2373 25.008 38.116C25.1293 37.9773 25.19 37.7953 25.19 37.57C25.19 37.4313 25.0947 37.076 24.904 36.504L24.384 34.97H20.354L20.146 35.62C19.886 36.4 19.756 36.9893 19.756 37.388C19.756 37.7693 19.8253 38.116 19.964 38.428L20.146 38.74L19.912 39H17.052L16.87 38.532L17.26 38.428C17.676 38.3067 17.988 38.142 18.196 37.934C18.404 37.7087 18.6033 37.3187 18.794 36.764L21.446 29.12C21.5673 28.6867 21.628 28.3833 21.628 28.21C21.628 27.8287 21.3507 27.56 20.796 27.404L20.51 27.326L20.692 26.858H24.228L27.634 36.66ZM24.124 34.242L22.356 28.964L20.614 34.242H24.124ZM32.6461 39.234C31.9354 39.234 31.4241 39.078 31.1121 38.766C30.8001 38.4367 30.6441 37.908 30.6441 37.18V31.668H29.3441C29.3441 31.3733 29.3614 31.1827 29.3961 31.096C29.4308 31.0093 29.5348 30.94 29.7081 30.888C30.2801 30.732 30.7308 30.4893 31.0601 30.16C31.3894 29.8307 31.6581 29.354 31.8661 28.73C31.9181 28.5393 32.0048 28.4267 32.1261 28.392C32.2474 28.34 32.5421 28.314 33.0101 28.314V30.654H35.1421C35.1421 30.8793 35.1074 31.0873 35.0381 31.278C34.9688 31.4513 34.8734 31.5813 34.7521 31.668H33.0101V37.518C33.0101 38.038 33.2268 38.298 33.6601 38.298C33.8508 38.298 34.0588 38.2373 34.2841 38.116C34.5268 37.9947 34.7434 37.83 34.9341 37.622L35.1421 37.882C34.3968 38.7833 33.5648 39.234 32.6461 39.234ZM38.816 39.234C38.1054 39.234 37.594 39.078 37.282 38.766C36.97 38.4367 36.814 37.908 36.814 37.18V31.668H35.514C35.514 31.3733 35.5314 31.1827 35.566 31.096C35.6007 31.0093 35.7047 30.94 35.878 30.888C36.45 30.732 36.9007 30.4893 37.23 30.16C37.5594 29.8307 37.828 29.354 38.036 28.73C38.088 28.5393 38.1747 28.4267 38.296 28.392C38.4174 28.34 38.712 28.314 39.18 28.314V30.654H41.312C41.312 30.8793 41.2774 31.0873 41.208 31.278C41.1387 31.4513 41.0434 31.5813 40.922 31.668H39.18V37.518C39.18 38.038 39.3967 38.298 39.83 38.298C40.0207 38.298 40.2287 38.2373 40.454 38.116C40.6967 37.9947 40.9134 37.83 41.104 37.622L41.312 37.882C40.5667 38.7833 39.7347 39.234 38.816 39.234ZM45.376 37.518C45.376 38.038 45.5406 38.298 45.87 38.298C46.1993 38.298 46.52 38.168 46.832 37.908L47.04 38.168C46.3986 38.8787 45.6446 39.234 44.778 39.234C44.154 39.234 43.7033 39.078 43.426 38.766C43.1486 38.4367 43.01 37.908 43.01 37.18V32.032C43.01 31.7893 42.8973 31.668 42.672 31.668H41.866L41.788 31.382C42.1346 31.0873 42.568 30.8447 43.088 30.654C43.608 30.4633 44.128 30.368 44.648 30.368C44.856 30.368 45.0293 30.42 45.168 30.524C45.3066 30.628 45.376 30.7667 45.376 30.94V37.518ZM42.75 27.872C42.75 27.56 42.9233 27.2133 43.27 26.832C43.6166 26.4507 43.9373 26.26 44.232 26.26C44.544 26.26 44.8733 26.4507 45.22 26.832C45.584 27.2133 45.766 27.56 45.766 27.872C45.766 28.2013 45.584 28.5567 45.22 28.938C44.8733 29.302 44.544 29.484 44.232 29.484C43.9373 29.484 43.6166 29.302 43.27 28.938C42.9233 28.5567 42.75 28.2013 42.75 27.872ZM52.3417 38.402C52.8964 38.402 53.3297 38.0467 53.6417 37.336C53.9711 36.608 54.1357 35.698 54.1357 34.606C54.1357 33.1327 53.8237 31.9713 53.1997 31.122L52.9657 30.836L53.1737 30.628L55.3577 30.368C55.4097 31.1133 55.4357 31.7113 55.4357 32.162C55.4357 34.3807 55.0977 36.114 54.4217 37.362C53.7457 38.61 52.8357 39.234 51.6917 39.234C50.7904 39.234 50.1057 38.9653 49.6377 38.428C49.1871 37.8907 48.8664 37.0067 48.6757 35.776L48.1297 32.032C48.1124 31.8933 48.0777 31.798 48.0257 31.746C47.9737 31.694 47.8957 31.668 47.7917 31.668H47.0897L47.0117 31.382C47.3584 31.07 47.7744 30.8273 48.2597 30.654C48.7451 30.4633 49.2217 30.368 49.6897 30.368C49.9497 30.368 50.1317 30.446 50.2357 30.602C50.3571 30.758 50.4524 31.07 50.5217 31.538L51.1977 36.192C51.3191 37.0413 51.4577 37.622 51.6137 37.934C51.7697 38.246 52.0124 38.402 52.3417 38.402ZM60.3564 37.518C60.3564 38.038 60.5211 38.298 60.8504 38.298C61.1798 38.298 61.5004 38.168 61.8124 37.908L62.0204 38.168C61.3791 38.8787 60.6251 39.234 59.7584 39.234C59.1344 39.234 58.6838 39.078 58.4064 38.766C58.1291 38.4367 57.9904 37.908 57.9904 37.18V32.032C57.9904 31.7893 57.8778 31.668 57.6524 31.668H56.8464L56.7684 31.382C57.1151 31.0873 57.5484 30.8447 58.0684 30.654C58.5884 30.4633 59.1084 30.368 59.6284 30.368C59.8364 30.368 60.0098 30.42 60.1484 30.524C60.2871 30.628 60.3564 30.7667 60.3564 30.94V37.518ZM57.7304 27.872C57.7304 27.56 57.9038 27.2133 58.2504 26.832C58.5971 26.4507 58.9178 26.26 59.2124 26.26C59.5244 26.26 59.8538 26.4507 60.2004 26.832C60.5644 27.2133 60.7464 27.56 60.7464 27.872C60.7464 28.2013 60.5644 28.5567 60.2004 28.938C59.8538 29.302 59.5244 29.484 59.2124 29.484C58.9178 29.484 58.5971 29.302 58.2504 28.938C57.9038 28.5567 57.7304 28.2013 57.7304 27.872ZM65.4762 39.234C64.7655 39.234 64.2542 39.078 63.9422 38.766C63.6302 38.4367 63.4742 37.908 63.4742 37.18V31.668H62.1742C62.1742 31.3733 62.1915 31.1827 62.2262 31.096C62.2609 31.0093 62.3649 30.94 62.5382 30.888C63.1102 30.732 63.5609 30.4893 63.8902 30.16C64.2195 29.8307 64.4882 29.354 64.6962 28.73C64.7482 28.5393 64.8349 28.4267 64.9562 28.392C65.0775 28.34 65.3722 28.314 65.8402 28.314V30.654H67.9722C67.9722 30.8793 67.9375 31.0873 67.8682 31.278C67.7989 31.4513 67.7035 31.5813 67.5822 31.668H65.8402V37.518C65.8402 38.038 66.0569 38.298 66.4902 38.298C66.6809 38.298 66.8889 38.2373 67.1142 38.116C67.3569 37.9947 67.5735 37.83 67.7642 37.622L67.9722 37.882C67.2269 38.7833 66.3949 39.234 65.4762 39.234ZM71.7761 33.254C71.4121 33.462 70.9788 33.566 70.4761 33.566C70.1121 33.566 69.8261 33.462 69.6181 33.254C69.4101 33.0287 69.3061 32.7167 69.3061 32.318C69.3061 31.7287 69.5921 31.2607 70.1641 30.914C70.7534 30.55 71.5161 30.368 72.4521 30.368C73.5614 30.368 74.4281 30.6107 75.0521 31.096C75.6934 31.5813 76.0141 32.24 76.0141 33.072V37.57C76.0141 38.0553 76.1874 38.298 76.5341 38.298C76.8634 38.298 77.1841 38.168 77.4961 37.908L77.7041 38.168C77.0628 38.8787 76.3001 39.234 75.4161 39.234C74.8961 39.234 74.4974 39.104 74.2201 38.844C73.9601 38.584 73.8041 38.1767 73.7521 37.622H73.6481C73.3708 38.1247 72.9981 38.5233 72.5301 38.818C72.0794 39.0953 71.5594 39.234 70.9701 39.234C70.3114 39.234 69.7828 39.0347 69.3841 38.636C68.9854 38.22 68.7861 37.6827 68.7861 37.024C68.7861 36.2787 69.1414 35.6893 69.8521 35.256C70.5628 34.8227 71.5248 34.606 72.7381 34.606C72.9634 34.606 73.2841 34.6233 73.7001 34.658V33.358C73.7001 32.5087 73.5961 31.902 73.3881 31.538C73.1801 31.1567 72.8421 30.966 72.3741 30.966C72.0448 30.966 71.7848 31.07 71.5941 31.278C71.4034 31.486 71.3081 31.7547 71.3081 32.084C71.3081 32.604 71.4641 32.994 71.7761 33.254ZM72.1661 37.934C73.1888 37.934 73.7001 37.0067 73.7001 35.152C72.8334 35.152 72.1834 35.2993 71.7501 35.594C71.3168 35.8713 71.1001 36.27 71.1001 36.79C71.1001 37.1367 71.1954 37.414 71.3861 37.622C71.5768 37.83 71.8368 37.934 72.1661 37.934ZM73.6481 29.406L71.4901 28.626C70.7448 28.366 70.3721 27.9327 70.3721 27.326C70.3721 26.7887 70.6928 26.3987 71.3341 26.156L73.9861 28.99L73.6481 29.406ZM87.5894 38.376C88.0921 38.376 88.5341 38.2893 88.9154 38.116C89.2967 37.9253 89.6694 37.6133 90.0334 37.18L90.3454 37.414C89.9467 37.986 89.4354 38.4367 88.8114 38.766C88.2047 39.078 87.5374 39.234 86.8094 39.234C86.0121 39.234 85.2927 39.0433 84.6514 38.662C84.0274 38.2807 83.5334 37.7607 83.1694 37.102C82.8054 36.426 82.6234 35.6633 82.6234 34.814C82.6234 33.462 83.0307 32.3873 83.8454 31.59C84.6774 30.7753 85.7781 30.368 87.1474 30.368C88.1181 30.368 88.9067 30.602 89.5134 31.07C90.1374 31.5207 90.4494 32.11 90.4494 32.838C90.4494 33.67 90.0941 34.3373 89.3834 34.84C88.6901 35.3253 87.7367 35.568 86.5234 35.568C86.0381 35.568 85.5961 35.5333 85.1974 35.464C85.2841 36.3653 85.5441 37.076 85.9774 37.596C86.4107 38.116 86.9481 38.376 87.5894 38.376ZM86.8614 30.992C86.3241 30.992 85.8994 31.3213 85.5874 31.98C85.2927 32.6213 85.1454 33.5227 85.1454 34.684V35.1C85.3361 35.1 85.5701 35.0827 85.8474 35.048C86.5754 34.9613 87.1301 34.7273 87.5114 34.346C87.9101 33.9473 88.1094 33.4273 88.1094 32.786C88.1094 32.266 87.9881 31.8413 87.7454 31.512C87.5201 31.1653 87.2254 30.992 86.8614 30.992ZM101.518 38.168C100.877 38.8787 100.123 39.234 99.2563 39.234C98.7189 39.234 98.3203 39.1213 98.0603 38.896C97.8003 38.6533 97.6269 38.2633 97.5403 37.726C97.0896 38.246 96.6216 38.6273 96.1363 38.87C95.6509 39.1127 95.1136 39.234 94.5243 39.234C93.6576 39.234 92.9469 38.8527 92.3923 38.09C91.8549 37.3273 91.5863 36.3393 91.5863 35.126C91.5863 33.67 91.9676 32.5173 92.7303 31.668C93.4929 30.8013 94.5329 30.368 95.8503 30.368C96.4569 30.368 97.0116 30.5067 97.5143 30.784V27.898C97.5143 27.6553 97.4016 27.534 97.1763 27.534H96.2923L96.1883 27.274C96.5349 26.962 96.9769 26.7193 97.5143 26.546C98.0516 26.3553 98.5803 26.26 99.1003 26.26C99.3256 26.26 99.5076 26.312 99.6463 26.416C99.7849 26.5027 99.8543 26.6327 99.8543 26.806V37.518C99.8543 38.038 100.019 38.298 100.348 38.298C100.678 38.298 100.998 38.168 101.31 37.908L101.518 38.168ZM95.8763 37.986C96.5349 37.986 97.0809 37.622 97.5143 36.894V31.304C97.1676 31.1307 96.7863 31.044 96.3703 31.044C94.9143 31.044 94.1863 32.3007 94.1863 34.814C94.1863 35.8367 94.3249 36.6253 94.6023 37.18C94.8969 37.7173 95.3216 37.986 95.8763 37.986ZM111.533 38.376C112.035 38.376 112.477 38.2893 112.859 38.116C113.24 37.9253 113.613 37.6133 113.977 37.18L114.289 37.414C113.89 37.986 113.379 38.4367 112.755 38.766C112.148 39.078 111.481 39.234 110.753 39.234C109.955 39.234 109.236 39.0433 108.595 38.662C107.971 38.2807 107.477 37.7607 107.113 37.102C106.749 36.426 106.567 35.6633 106.567 34.814C106.567 33.462 106.974 32.3873 107.789 31.59C108.621 30.7753 109.721 30.368 111.091 30.368C112.061 30.368 112.85 30.602 113.457 31.07C114.081 31.5207 114.393 32.11 114.393 32.838C114.393 33.67 114.037 34.3373 113.327 34.84C112.633 35.3253 111.68 35.568 110.467 35.568C109.981 35.568 109.539 35.5333 109.141 35.464C109.227 36.3653 109.487 37.076 109.921 37.596C110.354 38.116 110.891 38.376 111.533 38.376ZM110.805 30.992C110.267 30.992 109.843 31.3213 109.531 31.98C109.236 32.6213 109.089 33.5227 109.089 34.684V35.1C109.279 35.1 109.513 35.0827 109.791 35.048C110.519 34.9613 111.073 34.7273 111.455 34.346C111.853 33.9473 112.053 33.4273 112.053 32.786C112.053 32.266 111.931 31.8413 111.689 31.512C111.463 31.1653 111.169 30.992 110.805 30.992ZM118.104 32.136C118.104 32.5693 118.268 32.9247 118.598 33.202C118.944 33.462 119.464 33.7567 120.158 34.086C120.73 34.3633 121.172 34.606 121.484 34.814C121.796 35.0047 122.064 35.2647 122.29 35.594C122.532 35.9233 122.654 36.3133 122.654 36.764C122.654 37.5093 122.298 38.1073 121.588 38.558C120.894 39.0087 119.958 39.234 118.78 39.234C117.896 39.234 117.168 39.078 116.596 38.766C116.024 38.4367 115.738 38.012 115.738 37.492C115.738 37.1453 115.868 36.8593 116.128 36.634C116.388 36.3913 116.708 36.27 117.09 36.27C117.384 36.27 117.679 36.3307 117.974 36.452C117.679 36.6773 117.532 37.0413 117.532 37.544C117.532 37.8907 117.653 38.1593 117.896 38.35C118.138 38.5407 118.433 38.636 118.78 38.636C119.178 38.636 119.516 38.532 119.794 38.324C120.088 38.116 120.236 37.8213 120.236 37.44C120.236 37.076 120.088 36.79 119.794 36.582C119.516 36.3567 119.074 36.0967 118.468 35.802C117.913 35.542 117.462 35.308 117.116 35.1C116.786 34.8747 116.5 34.58 116.258 34.216C116.015 33.852 115.894 33.41 115.894 32.89C115.894 32.11 116.223 31.4947 116.882 31.044C117.54 30.5933 118.372 30.368 119.378 30.368C120.262 30.368 120.981 30.5327 121.536 30.862C122.108 31.1913 122.394 31.616 122.394 32.136C122.394 32.5347 122.272 32.8293 122.03 33.02C121.787 33.2107 121.475 33.306 121.094 33.306C120.73 33.306 120.409 33.228 120.132 33.072C120.444 32.7773 120.6 32.4047 120.6 31.954C120.6 31.6593 120.487 31.4253 120.262 31.252C120.036 31.0613 119.742 30.966 119.378 30.966C118.979 30.966 118.667 31.0787 118.442 31.304C118.216 31.5293 118.104 31.8067 118.104 32.136ZM130.25 30.368C131.134 30.368 131.844 30.758 132.382 31.538C132.936 32.3007 133.214 33.306 133.214 34.554C133.214 35.438 133.049 36.2353 132.72 36.946C132.408 37.6393 131.957 38.1853 131.368 38.584C130.796 38.9653 130.146 39.156 129.418 39.156C129.002 39.156 128.603 39.0953 128.222 38.974C127.858 38.8353 127.546 38.6447 127.286 38.402V41.366C127.286 41.782 127.338 42.0593 127.442 42.198C127.563 42.354 127.832 42.4753 128.248 42.562L128.586 42.64L128.43 43.082H124.4L124.192 42.822L124.4 42.562C124.608 42.2847 124.746 41.9813 124.816 41.652C124.902 41.34 124.946 40.9153 124.946 40.378V32.214C124.946 31.902 124.833 31.746 124.608 31.746H123.802L123.724 31.46C124.053 31.1653 124.478 30.9227 124.998 30.732C125.535 30.5413 126.055 30.446 126.558 30.446C126.783 30.446 126.956 30.498 127.078 30.602C127.216 30.706 127.286 30.8447 127.286 31.018V32.162C127.719 31.538 128.17 31.0873 128.638 30.81C129.123 30.5153 129.66 30.368 130.25 30.368ZM128.43 38.402C129.14 38.402 129.678 38.0987 130.042 37.492C130.423 36.8853 130.614 35.9927 130.614 34.814C130.614 33.7913 130.475 33.0113 130.198 32.474C129.92 31.9193 129.522 31.642 129.002 31.642C128.308 31.642 127.736 32.1013 127.286 33.02V38.064C127.615 38.2893 127.996 38.402 128.43 38.402ZM139.386 38.376C139.889 38.376 140.331 38.2893 140.712 38.116C141.094 37.9253 141.466 37.6133 141.83 37.18L142.142 37.414C141.744 37.986 141.232 38.4367 140.608 38.766C140.002 39.078 139.334 39.234 138.606 39.234C137.809 39.234 137.09 39.0433 136.448 38.662C135.824 38.2807 135.33 37.7607 134.966 37.102C134.602 36.426 134.42 35.6633 134.42 34.814C134.42 33.462 134.828 32.3873 135.642 31.59C136.474 30.7753 137.575 30.368 138.944 30.368C139.915 30.368 140.704 30.602 141.31 31.07C141.934 31.5207 142.246 32.11 142.246 32.838C142.246 33.67 141.891 34.3373 141.18 34.84C140.487 35.3253 139.534 35.568 138.32 35.568C137.835 35.568 137.393 35.5333 136.994 35.464C137.081 36.3653 137.341 37.076 137.774 37.596C138.208 38.116 138.745 38.376 139.386 38.376ZM138.658 30.992C138.121 30.992 137.696 31.3213 137.384 31.98C137.09 32.6213 136.942 33.5227 136.942 34.684V35.1C137.133 35.1 137.367 35.0827 137.644 35.048C138.372 34.9613 138.927 34.7273 139.308 34.346C139.707 33.9473 139.906 33.4273 139.906 32.786C139.906 32.266 139.785 31.8413 139.542 31.512C139.317 31.1653 139.022 30.992 138.658 30.992ZM149.051 30.368C149.606 30.368 150.056 30.5327 150.403 30.862C150.75 31.174 150.923 31.5813 150.923 32.084C150.923 32.552 150.784 32.9333 150.507 33.228C150.23 33.5053 149.866 33.644 149.415 33.644C149.068 33.644 148.748 33.5747 148.453 33.436C148.765 33.176 148.921 32.786 148.921 32.266C148.921 32.0233 148.869 31.8327 148.765 31.694C148.661 31.5553 148.522 31.486 148.349 31.486C147.933 31.486 147.586 31.9107 147.309 32.76C147.032 33.592 146.893 34.632 146.893 35.88C146.893 36.5213 146.928 37.0327 146.997 37.414C147.084 37.7953 147.222 38.1507 147.413 38.48L147.621 38.74L147.413 39H143.643L143.487 38.558L143.851 38.48C144.128 38.4107 144.31 38.3067 144.397 38.168C144.484 38.012 144.527 37.7173 144.527 37.284V32.214C144.527 31.8847 144.414 31.72 144.189 31.72H143.383L143.279 31.434C143.608 31.1393 144.016 30.8967 144.501 30.706C145.004 30.5153 145.498 30.42 145.983 30.42C146.208 30.42 146.39 30.472 146.529 30.576C146.668 30.68 146.737 30.8187 146.737 30.992V32.89H146.815C147.179 31.2087 147.924 30.368 149.051 30.368ZM154.911 37.518C154.911 38.038 155.076 38.298 155.405 38.298C155.734 38.298 156.055 38.168 156.367 37.908L156.575 38.168C155.934 38.8787 155.18 39.234 154.313 39.234C153.689 39.234 153.238 39.078 152.961 38.766C152.684 38.4367 152.545 37.908 152.545 37.18V32.032C152.545 31.7893 152.432 31.668 152.207 31.668H151.401L151.323 31.382C151.67 31.0873 152.103 30.8447 152.623 30.654C153.143 30.4633 153.663 30.368 154.183 30.368C154.391 30.368 154.564 30.42 154.703 30.524C154.842 30.628 154.911 30.7667 154.911 30.94V37.518ZM152.285 27.872C152.285 27.56 152.458 27.2133 152.805 26.832C153.152 26.4507 153.472 26.26 153.767 26.26C154.079 26.26 154.408 26.4507 154.755 26.832C155.119 27.2133 155.301 27.56 155.301 27.872C155.301 28.2013 155.119 28.5567 154.755 28.938C154.408 29.302 154.079 29.484 153.767 29.484C153.472 29.484 153.152 29.302 152.805 28.938C152.458 28.5567 152.285 28.2013 152.285 27.872ZM162.111 38.376C162.614 38.376 163.056 38.2893 163.437 38.116C163.818 37.9253 164.191 37.6133 164.555 37.18L164.867 37.414C164.468 37.986 163.957 38.4367 163.333 38.766C162.726 39.078 162.059 39.234 161.331 39.234C160.534 39.234 159.814 39.0433 159.173 38.662C158.549 38.2807 158.055 37.7607 157.691 37.102C157.327 36.426 157.145 35.6633 157.145 34.814C157.145 33.462 157.552 32.3873 158.367 31.59C159.199 30.7753 160.3 30.368 161.669 30.368C162.64 30.368 163.428 30.602 164.035 31.07C164.659 31.5207 164.971 32.11 164.971 32.838C164.971 33.67 164.616 34.3373 163.905 34.84C163.212 35.3253 162.258 35.568 161.045 35.568C160.56 35.568 160.118 35.5333 159.719 35.464C159.806 36.3653 160.066 37.076 160.499 37.596C160.932 38.116 161.47 38.376 162.111 38.376ZM161.383 30.992C160.846 30.992 160.421 31.3213 160.109 31.98C159.814 32.6213 159.667 33.5227 159.667 34.684V35.1C159.858 35.1 160.092 35.0827 160.369 35.048C161.097 34.9613 161.652 34.7273 162.033 34.346C162.432 33.9473 162.631 33.4273 162.631 32.786C162.631 32.266 162.51 31.8413 162.267 31.512C162.042 31.1653 161.747 30.992 161.383 30.992ZM175.156 37.518C175.156 38.038 175.32 38.298 175.65 38.298C175.979 38.298 176.3 38.168 176.612 37.908L176.82 38.168C176.178 38.8787 175.424 39.234 174.558 39.234C173.934 39.234 173.483 39.078 173.206 38.766C172.946 38.4367 172.816 37.908 172.816 37.18V33.202C172.816 32.1967 172.495 31.694 171.854 31.694C171.23 31.694 170.718 32.1187 170.32 32.968C169.938 33.8173 169.748 34.9267 169.748 36.296C169.748 36.816 169.791 37.2407 169.878 37.57C169.964 37.882 170.103 38.1853 170.294 38.48L170.502 38.74L170.294 39H166.524L166.368 38.558L166.732 38.48C167.009 38.4107 167.191 38.3067 167.278 38.168C167.364 38.012 167.408 37.7173 167.408 37.284V32.214C167.408 31.8847 167.295 31.72 167.07 31.72H166.238L166.16 31.434C166.506 31.1393 166.94 30.8967 167.46 30.706C167.98 30.5153 168.5 30.42 169.02 30.42C169.245 30.42 169.418 30.472 169.54 30.576C169.678 30.68 169.748 30.8187 169.748 30.992V33.228C169.99 32.4133 170.424 31.7373 171.048 31.2C171.672 30.6453 172.33 30.368 173.024 30.368C173.769 30.368 174.306 30.6107 174.636 31.096C174.982 31.5813 175.156 32.3527 175.156 33.41V37.518ZM182.706 38.22C183.088 38.22 183.374 38.1507 183.564 38.012C183.755 37.856 183.894 37.6047 183.98 37.258L184.188 36.296L184.708 36.478V39.208L184.5 39.416C184.258 39.26 183.989 39.1473 183.694 39.078C183.417 39.026 183.018 39 182.498 39H177.584L177.402 38.48L182.004 31.33H179.612C179.248 31.33 178.962 31.408 178.754 31.564C178.546 31.72 178.408 31.9627 178.338 32.292L178.156 33.254L177.61 33.072V30.342L177.818 30.134C178.061 30.29 178.321 30.4027 178.598 30.472C178.893 30.524 179.309 30.55 179.846 30.55H184.63C184.856 30.758 184.968 31.0007 184.968 31.278L184.5 31.538L180.21 38.22H182.706ZM190.929 38.376C191.432 38.376 191.874 38.2893 192.255 38.116C192.637 37.9253 193.009 37.6133 193.373 37.18L193.685 37.414C193.287 37.986 192.775 38.4367 192.151 38.766C191.545 39.078 190.877 39.234 190.149 39.234C189.352 39.234 188.633 39.0433 187.991 38.662C187.367 38.2807 186.873 37.7607 186.509 37.102C186.145 36.426 185.963 35.6633 185.963 34.814C185.963 33.462 186.371 32.3873 187.185 31.59C188.017 30.7753 189.118 30.368 190.487 30.368C191.458 30.368 192.247 30.602 192.853 31.07C193.477 31.5207 193.789 32.11 193.789 32.838C193.789 33.67 193.434 34.3373 192.723 34.84C192.03 35.3253 191.077 35.568 189.863 35.568C189.378 35.568 188.936 35.5333 188.537 35.464C188.624 36.3653 188.884 37.076 189.317 37.596C189.751 38.116 190.288 38.376 190.929 38.376ZM190.201 30.992C189.664 30.992 189.239 31.3213 188.927 31.98C188.633 32.6213 188.485 33.5227 188.485 34.684V35.1C188.676 35.1 188.91 35.0827 189.187 35.048C189.915 34.9613 190.47 34.7273 190.851 34.346C191.25 33.9473 191.449 33.4273 191.449 32.786C191.449 32.266 191.328 31.8413 191.085 31.512C190.86 31.1653 190.565 30.992 190.201 30.992Z" fill="white"/>
</svg>
